<?xml version="1.0" standalone="no"?><!DOCTYPE svg PUBLIC "-//W3C//DTD SVG 1.1//EN" "http://www.w3.org/Graphics/SVG/1.1/DTD/svg11.dtd"><svg t="1600412887252" class="icon" viewBox="0 0 1024 1024" version="1.1" xmlns="http://www.w3.org/2000/svg" p-id="3388" xmlns:xlink="http://www.w3.org/1999/xlink" width="200" height="200"><defs><style type="text/css"></style></defs><path d="M968.986 996.684L714.624 1023.6 609.236 27.3 863.6 0.4z" fill="#656D78" p-id="3389"></path><path d="M864.006 814.888c2.498 23.418-14.488 44.402-37.908 46.87-23.388 2.466-44.402-14.488-46.87-37.908-2.466-23.418 14.488-44.402 37.908-46.87 23.42-2.498 44.404 14.488 46.87 37.908z" fill="#F5F7FA" p-id="3390"></path><path d="M679.51 84.202l127.176-13.454 60.544 572.306-127.176 13.454z" fill="#48CFAD" p-id="3391"></path><path d="M353.438 21.758h255.798V1023.6H353.438z" fill="#656D78" p-id="3392"></path><path d="M523.958 831.75c0 23.544-19.078 42.654-42.624 42.654-23.542 0-42.654-19.11-42.654-42.654 0-23.542 19.112-42.624 42.654-42.624 23.546 0 42.624 19.082 42.624 42.624z" fill="#F5F7FA" p-id="3393"></path><path d="M417.386 85.694h127.9v575.534h-127.9z" fill="#FFCE54" p-id="3394"></path><path d="M55.014 21.758h255.8V1023.6h-255.8z" fill="#656D78" p-id="3395"></path><path d="M225.538 831.75c0 23.544-19.08 42.654-42.624 42.654-23.544 0-42.654-19.11-42.654-42.654 0-23.542 19.11-42.624 42.654-42.624 23.544 0 42.624 19.082 42.624 42.624z" fill="#F5F7FA" p-id="3396"></path><path d="M118.962 85.694h127.9v575.534h-127.9z" fill="#A0D468" p-id="3397"></path></svg>